<svg width="20" height="18" viewBox="0 0 20 18" fill="none" xmlns="http://www.w3.org/2000/svg">
<path d="M9 5L9 4C9 3.20435 9.31607 2.44129 9.87868 1.87868C10.4413 1.31607 11.2044 0.999999 12 0.999999L16 1C16.7957 1 17.5587 1.31607 18.1213 1.87868C18.6839 2.44129 19 3.20435 19 4L19 14C19 14.7956 18.6839 15.5587 18.1213 16.1213C17.5587 16.6839 16.7956 17 16 17L12 17C11.2044 17 10.4413 16.6839 9.87868 16.1213C9.31607 15.5587 9 14.7956 9 14L9 13M5 5L1 9L5 5ZM1 9L5 13L1 9ZM1 9L15 9L1 9Z" stroke="#EB5757" stroke-width="1.5" stroke-linecap="round" stroke-linejoin="round"/>
</svg>
