<svg width="18" height="20" viewBox="0 0 18 20" fill="none" xmlns="http://www.w3.org/2000/svg">
<path d="M2.84181 4.7363V2.84175C2.84183 2.29317 3.00062 1.75631 3.29903 1.29599C3.59744 0.835661 4.0227 0.471547 4.52349 0.247593C5.02428 0.0236398 5.57919 -0.0505787 6.12123 0.0338964C6.66328 0.118372 7.16928 0.357929 7.57817 0.723653C7.98706 0.357929 8.49307 0.118372 9.03511 0.0338964C9.57716 -0.0505787 10.1321 0.0236398 10.6329 0.247593C11.1336 0.471547 11.5589 0.835661 11.8573 1.29599C12.1557 1.75631 12.3145 2.29317 12.3145 2.84175V4.7363H13.7354C14.1123 4.7363 14.4737 4.886 14.7402 5.15247C15.0066 5.41894 15.1563 5.78035 15.1563 6.1572V10.2475L14.2384 9.34383C14.085 9.19226 13.9164 9.06059 13.7354 8.94881V6.1572H9.95582V8.52728H9.47366C9.14496 8.52728 8.82952 8.58411 8.53492 8.68642V6.1572H1.42091V15.1563C1.42091 15.4673 1.48216 15.7752 1.60117 16.0625C1.72019 16.3499 1.89463 16.6109 2.11453 16.8308C2.33444 17.0507 2.5955 17.2252 2.88282 17.3442C3.17014 17.4632 3.47809 17.5245 3.78909 17.5245H8.80963L10.2059 18.9454H3.78909C2.78416 18.9454 1.82039 18.5462 1.1098 17.8356C0.399206 17.125 0 16.1612 0 15.1563V6.1572C0 5.78035 0.149702 5.41894 0.416174 5.15247C0.682646 4.886 1.04406 4.7363 1.42091 4.7363H2.84181ZM7.10454 4.7363V2.84175C7.10454 2.4649 6.95484 2.10349 6.68836 1.83702C6.42189 1.57055 6.06048 1.42084 5.68363 1.42084C5.30678 1.42084 4.94537 1.57055 4.6789 1.83702C4.41242 2.10349 4.26272 2.4649 4.26272 2.84175V4.7363H7.10454ZM8.52544 4.7363H10.8936V2.84175C10.8937 2.54927 10.8034 2.2639 10.6352 2.0246C10.4671 1.7853 10.2291 1.60373 9.95393 1.50468C9.67873 1.40562 9.37967 1.39391 9.09756 1.47113C8.81546 1.54835 8.56405 1.71075 8.37767 1.93616C8.47334 2.22034 8.52544 2.52536 8.52544 2.84175V4.7363ZM8.12001 15.4708L11.91 19.3281C12.6499 20.0821 13.8652 20.0859 14.6117 19.3394L17.4468 16.5014C17.6232 16.3252 17.7628 16.1158 17.8578 15.8854C17.9527 15.6549 18.001 15.4079 18 15.1587C17.9989 14.9094 17.9485 14.6628 17.8516 14.4332C17.7547 14.2035 17.6133 13.9953 17.4355 13.8206L13.5744 10.0192C13.2183 9.66866 12.7385 9.47232 12.2387 9.47265L9.47461 9.47455C8.97247 9.47405 8.49068 9.67291 8.13508 10.0274C7.77948 10.382 7.57918 10.8632 7.57817 11.3653V14.1474C7.57817 14.6419 7.77236 15.1174 8.12001 15.4708ZM11.3635 12.3145C11.3635 12.4389 11.3391 12.5621 11.2915 12.677C11.244 12.792 11.1743 12.8964 11.0864 12.9844C10.9984 13.0724 10.894 13.1423 10.7791 13.1899C10.6642 13.2376 10.5411 13.2622 10.4167 13.2622C10.1654 13.2623 9.92445 13.1627 9.74671 12.9851C9.56897 12.8075 9.46905 12.5666 9.46893 12.3154C9.4688 12.0642 9.56848 11.8232 9.74604 11.6455C9.9236 11.4677 10.1645 11.3678 10.4157 11.3677C10.667 11.3675 10.9079 11.4672 11.0857 11.6448C11.2634 11.8223 11.3633 12.0632 11.3635 12.3145Z" fill="#333333"/>
</svg>
