<svg width="18" height="21" viewBox="0 0 18 21" fill="none" xmlns="http://www.w3.org/2000/svg">
<path d="M9 8.25C8.00544 8.25 7.05161 7.85491 6.34835 7.15165C5.64509 6.44839 5.25 5.49456 5.25 4.5C5.25 3.50544 5.64509 2.55161 6.34835 1.84835C7.05161 1.14509 8.00544 0.75 9 0.75C9.99456 0.75 10.9484 1.14509 11.6517 1.84835C12.3549 2.55161 12.75 3.50544 12.75 4.5C12.75 5.49456 12.3549 6.44839 11.6517 7.15165C10.9484 7.85491 9.99456 8.25 9 8.25Z" stroke="white" stroke-width="1.5" stroke-linecap="round"/>
<mask id="path-2-inside-1_703_1916" fill="white">
<path d="M0 20.25V19.125C0 17.3348 0.711159 15.6179 1.97703 14.352C3.2429 13.0862 4.95979 12.375 6.75 12.375H11.25C13.0402 12.375 14.7571 13.0862 16.023 14.352C17.2888 15.6179 18 17.3348 18 19.125V20.25"/>
</mask>
<path d="M-1.5 20.25C-1.5 21.0784 -0.828427 21.75 0 21.75C0.828427 21.75 1.5 21.0784 1.5 20.25H-1.5ZM0 19.125H-1.5H0ZM6.75 12.375V10.875V12.375ZM16.5 20.25C16.5 21.0784 17.1716 21.75 18 21.75C18.8284 21.75 19.5 21.0784 19.5 20.25H16.5ZM1.5 20.25V19.125H-1.5V20.25H1.5ZM1.5 19.125C1.5 17.7326 2.05312 16.3973 3.03769 15.4127L0.916369 13.2914C-0.630806 14.8385 -1.5 16.937 -1.5 19.125H1.5ZM3.03769 15.4127C4.02226 14.4281 5.35761 13.875 6.75 13.875V10.875C4.56196 10.875 2.46354 11.7442 0.916369 13.2914L3.03769 15.4127ZM6.75 13.875H11.25V10.875H6.75V13.875ZM11.25 13.875C12.6424 13.875 13.9777 14.4281 14.9623 15.4127L17.0836 13.2914C15.5365 11.7442 13.438 10.875 11.25 10.875V13.875ZM14.9623 15.4127C15.9469 16.3973 16.5 17.7326 16.5 19.125H19.5C19.5 16.937 18.6308 14.8385 17.0836 13.2914L14.9623 15.4127ZM16.5 19.125V20.25H19.5V19.125H16.5Z" fill="white" mask="url(#path-2-inside-1_703_1916)"/>
</svg>
