<svg width="18" height="15" viewBox="0 0 18 15" fill="none" xmlns="http://www.w3.org/2000/svg">
<path d="M15.5248 4.95027C16.1813 4.95027 16.8108 4.6895 17.275 4.22532C17.7392 3.76115 18 3.13158 18 2.47514C18 1.81869 17.7392 1.18913 17.275 0.724951C16.8108 0.260773 16.1813 0 15.5248 0C14.8684 0 14.2388 0.260773 13.7746 0.724951C13.3105 1.18913 13.0497 1.81869 13.0497 2.47514C13.0497 3.13158 13.3105 3.76115 13.7746 4.22532C14.2388 4.6895 14.8684 4.95027 15.5248 4.95027Z" fill="#4F4F4F"/>
<path d="M12.3414 3.60039C12.1371 3.02281 12.0942 2.40046 12.2172 1.80029H0.899053L0.793747 1.80659C0.565948 1.83369 0.357092 1.94674 0.209853 2.12266C0.0626135 2.29858 -0.011896 2.52408 0.00154812 2.75309C0.0149923 2.9821 0.115375 3.19733 0.282187 3.35482C0.448999 3.5123 0.669648 3.60014 0.899053 3.60039H12.3414Z" fill="#4F4F4F"/>
<path d="M17.1 12.6006H0.899053L0.793747 12.6069C0.565948 12.634 0.357092 12.747 0.209853 12.923C0.0626135 13.0989 -0.011896 13.3244 0.00154812 13.5534C0.0149923 13.7824 0.115375 13.9976 0.282187 14.1551C0.448999 14.3126 0.669648 14.4004 0.899053 14.4007H17.1L17.2053 14.3944C17.4331 14.3673 17.6419 14.2542 17.7892 14.0783C17.9364 13.9024 18.0109 13.6769 17.9975 13.4479C17.984 13.2189 17.8836 13.0036 17.7168 12.8462C17.55 12.6887 17.3294 12.6008 17.1 12.6006Z" fill="#4F4F4F"/>
<path d="M0.899053 7.20053L17.1 7.19873C17.3294 7.19898 17.55 7.28683 17.7168 7.44431C17.8836 7.60179 17.984 7.81702 17.9975 8.04603C18.0109 8.27504 17.9364 8.50054 17.7892 8.67646C17.6419 8.85238 17.4331 8.96544 17.2053 8.99253L17.1 8.99883L0.899053 9.00063C0.669648 9.00038 0.448999 8.91253 0.282187 8.75505C0.115375 8.59757 0.0149923 8.38234 0.00154812 8.15333C-0.011896 7.92432 0.0626135 7.69882 0.209853 7.5229C0.357092 7.34698 0.565948 7.23393 0.793747 7.20683L0.899053 7.20053Z" fill="#4F4F4F"/>
</svg>
