<svg width="20" height="21" viewBox="0 0 20 21" fill="none" xmlns="http://www.w3.org/2000/svg">
<path d="M15.3375 9.52632C15.8879 14.6184 18.0526 16.1579 18.0526 16.1579H1C1 16.1579 3.84211 14.1372 3.84211 7.06316C3.84211 5.45547 4.44084 3.91316 5.50663 2.77632C6.57337 1.63947 8.02 1 9.52632 1C9.84558 1 10.1629 1.02842 10.4737 1.08526" stroke="#4F4F4F" stroke-width="1.5" stroke-linecap="round" stroke-linejoin="round"/>
<path d="M16.1579 6.68421C16.9117 6.68421 17.6346 6.38477 18.1676 5.85178C18.7006 5.31878 19 4.59588 19 3.84211C19 3.08833 18.7006 2.36543 18.1676 1.83243C17.6346 1.29944 16.9117 1 16.1579 1C15.4041 1 14.6812 1.29944 14.1482 1.83243C13.6152 2.36543 13.3158 3.08833 13.3158 3.84211C13.3158 4.59588 13.6152 5.31878 14.1482 5.85178C14.6812 6.38477 15.4041 6.68421 16.1579 6.68421Z" stroke="#4F4F4F" stroke-width="1.5" stroke-linecap="round" stroke-linejoin="round"/>
<path d="M11.1652 19C10.9989 19.2874 10.7599 19.5259 10.4722 19.6918C10.1845 19.8576 9.85833 19.945 9.52628 19.945C9.19423 19.945 8.86801 19.8576 8.58035 19.6918C8.29269 19.5259 8.05369 19.2874 7.88733 19" stroke="#4F4F4F" stroke-width="1.5" stroke-linecap="round" stroke-linejoin="round"/>
</svg>
