<svg width="20" height="21" viewBox="0 0 20 21" fill="none" xmlns="http://www.w3.org/2000/svg">
<path d="M15.3375 9.52632C15.8879 14.6184 18.0526 16.1579 18.0526 16.1579H1C1 16.1579 3.84211 14.1372 3.84211 7.06316C3.84211 5.45547 4.44084 3.91316 5.50663 2.77632C6.57337 1.63947 8.02 1 9.52632 1C9.84558 1 10.1629 1.02842 10.4737 1.08526" stroke="white" stroke-width="1.5" stroke-linecap="round" stroke-linejoin="round"/>
<path d="M16.158 6.68421C16.9118 6.68421 17.6347 6.38477 18.1677 5.85178C18.7007 5.31878 19.0001 4.59588 19.0001 3.84211C19.0001 3.08833 18.7007 2.36543 18.1677 1.83243C17.6347 1.29944 16.9118 1 16.158 1C15.4042 1 14.6813 1.29944 14.1484 1.83243C13.6154 2.36543 13.3159 3.08833 13.3159 3.84211C13.3159 4.59588 13.6154 5.31878 14.1484 5.85178C14.6813 6.38477 15.4042 6.68421 16.158 6.68421Z" stroke="white" stroke-width="1.5" stroke-linecap="round" stroke-linejoin="round"/>
<path d="M11.1651 19C10.9987 19.2874 10.7597 19.5259 10.4721 19.6918C10.1844 19.8576 9.8582 19.945 9.52615 19.945C9.1941 19.945 8.86789 19.8576 8.58023 19.6918C8.29257 19.5259 8.05357 19.2874 7.88721 19" stroke="white" stroke-width="1.5" stroke-linecap="round" stroke-linejoin="round"/>
</svg>
