<svg width="18" height="19" viewBox="0 0 18 19" fill="none" xmlns="http://www.w3.org/2000/svg">
<path d="M16.5293 9.7667C16.3824 9.59952 16.3014 9.38461 16.3014 9.16208C16.3014 8.93956 16.3824 8.72464 16.5293 8.55747L17.7019 7.23831C17.8311 7.09418 17.9113 6.91283 17.9311 6.72027C17.9508 6.52771 17.9091 6.33385 17.8118 6.16649L15.9797 2.99684C15.8834 2.82967 15.7368 2.69717 15.5608 2.61821C15.3848 2.53925 15.1883 2.51787 14.9995 2.55712L13.2772 2.90523C13.0581 2.95051 12.8299 2.91402 12.6359 2.80263C12.4418 2.69124 12.2952 2.51267 12.2237 2.30062L11.6649 0.624183C11.6034 0.442229 11.4864 0.284192 11.3302 0.172409C11.174 0.0606254 10.9867 0.000750086 10.7946 0.00124584H7.13029C6.93053 -0.00918106 6.73284 0.0460665 6.56742 0.15855C6.402 0.271034 6.27795 0.434571 6.21421 0.624183L5.7012 2.30062C5.62975 2.51267 5.48315 2.69124 5.28907 2.80263C5.09499 2.91402 4.86685 2.95051 4.64771 2.90523L2.87966 2.55712C2.70062 2.53182 2.51809 2.56007 2.35507 2.63832C2.19205 2.71657 2.05583 2.84131 1.96358 2.99684L0.131413 6.16649C0.0317066 6.33198 -0.0131247 6.52476 0.00332863 6.71726C0.0197819 6.90976 0.0966773 7.09214 0.223021 7.23831L1.38645 8.55747C1.53331 8.72464 1.61431 8.93956 1.61431 9.16208C1.61431 9.38461 1.53331 9.59952 1.38645 9.7667L0.223021 11.0859C0.0966773 11.232 0.0197819 11.4144 0.00332863 11.6069C-0.0131247 11.7994 0.0317066 11.9922 0.131413 12.1577L1.96358 15.3273C2.05986 15.4945 2.20645 15.627 2.38246 15.706C2.55847 15.7849 2.75492 15.8063 2.94379 15.767L4.66603 15.4189C4.88517 15.3737 5.11331 15.4101 5.30739 15.5215C5.50147 15.6329 5.64807 15.8115 5.71952 16.0236L6.27833 17.7C6.34207 17.8896 6.46613 18.0531 6.63154 18.1656C6.79696 18.2781 6.99465 18.3333 7.19442 18.3229H10.8588C11.0508 18.3234 11.2382 18.2635 11.3943 18.1518C11.5505 18.04 11.6676 17.8819 11.729 17.7L12.2878 16.0236C12.3593 15.8115 12.5059 15.6329 12.7 15.5215C12.8941 15.4101 13.1222 15.3737 13.3413 15.4189L15.0636 15.767C15.2525 15.8063 15.4489 15.7849 15.6249 15.706C15.8009 15.627 15.9475 15.4945 16.0438 15.3273L17.876 12.1577C17.9732 11.9903 18.015 11.7965 17.9952 11.6039C17.9755 11.4113 17.8952 11.23 17.766 11.0859L16.5293 9.7667ZM15.1643 10.9943L15.8972 11.8187L14.7246 13.8524L13.6436 13.6326C12.9839 13.4977 12.2975 13.6098 11.7149 13.9475C11.1323 14.2853 10.694 14.8252 10.4832 15.4647L10.135 16.4908H7.78987L7.46008 15.4464C7.24925 14.8068 6.81093 14.2669 6.22832 13.9292C5.64571 13.5915 4.95938 13.4794 4.29959 13.6143L3.21861 13.8341L2.02771 11.8096L2.76057 10.9851C3.21124 10.4812 3.4604 9.82893 3.4604 9.15292C3.4604 8.47691 3.21124 7.82462 2.76057 7.32075L2.02771 6.49628L3.20029 4.4809L4.28127 4.70076C4.94105 4.83562 5.62739 4.72355 6.21 4.3858C6.79261 4.04806 7.23093 3.50816 7.44176 2.86859L7.78987 1.83341H10.135L10.4832 2.87775C10.694 3.51732 11.1323 4.05722 11.7149 4.39497C12.2975 4.73271 12.9839 4.84478 13.6436 4.70992L14.7246 4.49006L15.8972 6.52376L15.1643 7.34824C14.7187 7.85095 14.4727 8.49946 14.4727 9.17124C14.4727 9.84302 14.7187 10.4915 15.1643 10.9943ZM8.96246 5.49775C8.23772 5.49775 7.52926 5.71266 6.92666 6.1153C6.32407 6.51794 5.8544 7.09023 5.57706 7.7598C5.29971 8.42937 5.22714 9.16615 5.36853 9.87696C5.50992 10.5878 5.85892 11.2407 6.37138 11.7532C6.88385 12.2656 7.53677 12.6146 8.24758 12.756C8.9584 12.8974 9.69517 12.8248 10.3647 12.5475C11.0343 12.2701 11.6066 11.8005 12.0092 11.1979C12.4119 10.5953 12.6268 9.88682 12.6268 9.16208C12.6268 8.19024 12.2407 7.2582 11.5535 6.57101C10.8663 5.88381 9.9343 5.49775 8.96246 5.49775ZM8.96246 10.9943C8.60009 10.9943 8.24586 10.8868 7.94456 10.6855C7.64326 10.4842 7.40843 10.198 7.26976 9.86322C7.13108 9.52844 7.0948 9.16005 7.1655 8.80464C7.23619 8.44924 7.41069 8.12278 7.66692 7.86655C7.92315 7.61031 8.24962 7.43581 8.60502 7.36512C8.96043 7.29443 9.32881 7.33071 9.6636 7.46938C9.99838 7.60805 10.2845 7.84289 10.4859 8.14419C10.6872 8.44548 10.7946 8.79971 10.7946 9.16208C10.7946 9.648 10.6016 10.114 10.258 10.4576C9.9144 10.8012 9.44838 10.9943 8.96246 10.9943Z" fill="white"/>
</svg>
